{
 "cells": [
  {
   "cell_type": "code",
   "execution_count": 1,
   "metadata": {},
   "outputs": [],
   "source": [
    "import subprocess\n",
    "from ibm_watson import SpeechToTextV1\n",
    "from ibm_watson.websocket import RecognizeCallback, AudioSource\n",
    "from ibm_cloud_sdk_core.authenticators import IAMAuthenticator"
   ]
  },
  {
   "cell_type": "markdown",
   "metadata": {},
   "source": [
    "### Extract Audio"
   ]
  },
  {
   "cell_type": "code",
   "execution_count": 10,
   "metadata": {},
   "outputs": [
    {
     "name": "stdout",
     "output_type": "stream",
     "text": [
      "Current working directory: /Users/user/projects/transcription_project/notebooks\n",
      "Does the file exist? True\n"
     ]
    },
    {
     "name": "stderr",
     "output_type": "stream",
     "text": [
      "ffmpeg version 7.1 Copyright (c) 2000-2024 the FFmpeg developers\n",
      "  built with Apple clang version 16.0.0 (clang-1600.0.26.4)\n",
      "  configuration: --prefix=/usr/local/Cellar/ffmpeg/7.1_4 --enable-shared --enable-pthreads --enable-version3 --cc=clang --host-cflags= --host-ldflags='-Wl,-ld_classic' --enable-ffplay --enable-gnutls --enable-gpl --enable-libaom --enable-libaribb24 --enable-libbluray --enable-libdav1d --enable-libharfbuzz --enable-libjxl --enable-libmp3lame --enable-libopus --enable-librav1e --enable-librist --enable-librubberband --enable-libsnappy --enable-libsrt --enable-libssh --enable-libsvtav1 --enable-libtesseract --enable-libtheora --enable-libvidstab --enable-libvmaf --enable-libvorbis --enable-libvpx --enable-libwebp --enable-libx264 --enable-libx265 --enable-libxml2 --enable-libxvid --enable-lzma --enable-libfontconfig --enable-libfreetype --enable-frei0r --enable-libass --enable-libopencore-amrnb --enable-libopencore-amrwb --enable-libopenjpeg --enable-libspeex --enable-libsoxr --enable-libzmq --enable-libzimg --disable-libjack --disable-indev=jack --enable-videotoolbox --enable-audiotoolbox\n",
      "  libavutil      59. 39.100 / 59. 39.100\n",
      "  libavcodec     61. 19.100 / 61. 19.100\n",
      "  libavformat    61.  7.100 / 61.  7.100\n",
      "  libavdevice    61.  3.100 / 61.  3.100\n",
      "  libavfilter    10.  4.100 / 10.  4.100\n",
      "  libswscale      8.  3.100 /  8.  3.100\n",
      "  libswresample   5.  3.100 /  5.  3.100\n",
      "  libpostproc    58.  3.100 / 58.  3.100\n",
      "Input #0, mov,mp4,m4a,3gp,3g2,mj2, from '../data/raw/video_to_text/01.mp4':\n",
      "  Metadata:\n",
      "    major_brand     : mp42\n",
      "    minor_version   : 0\n",
      "    compatible_brands: isommp42\n",
      "    encoder         : Google\n",
      "  Duration: 00:00:19.56, start: 0.000000, bitrate: 907 kb/s\n",
      "  Stream #0:0[0x1](und): Video: h264 (Constrained Baseline) (avc1 / 0x31637661), yuv420p(tv, bt709, progressive), 640x640 [SAR 1:1 DAR 1:1], 715 kb/s, 30 fps, 30 tbr, 15360 tbn (default)\n",
      "      Metadata:\n",
      "        handler_name    : ISO Media file produced by Google Inc.\n",
      "        vendor_id       : [0][0][0][0]\n",
      "  Stream #0:1[0x2](und): Audio: aac (LC) (mp4a / 0x6134706D), 48000 Hz, stereo, fltp, 192 kb/s (default)\n",
      "      Metadata:\n",
      "        handler_name    : ISO Media file produced by Google Inc.\n",
      "        vendor_id       : [0][0][0][0]\n",
      "Stream mapping:\n",
      "  Stream #0:1 -> #0:0 (aac (native) -> pcm_s16le (native))\n",
      "Press [q] to stop, [?] for help\n",
      "Output #0, wav, to 'audio.wav':\n",
      "  Metadata:\n",
      "    major_brand     : mp42\n",
      "    minor_version   : 0\n",
      "    compatible_brands: isommp42\n",
      "    ISFT            : Lavf61.7.100\n",
      "  Stream #0:0(und): Audio: pcm_s16le ([1][0][0][0] / 0x0001), 44100 Hz, stereo, s16, 1411 kb/s (default)\n",
      "      Metadata:\n",
      "        handler_name    : ISO Media file produced by Google Inc.\n",
      "        vendor_id       : [0][0][0][0]\n",
      "        encoder         : Lavc61.19.100 pcm_s16le\n",
      "[out#0/wav @ 0x7fd29f805300] video:0KiB audio:3370KiB subtitle:0KiB other streams:0KiB global headers:0KiB muxing overhead: 0.002260%\n",
      "size=    3370KiB time=00:00:19.56 bitrate=1411.2kbits/s speed= 737x    \n"
     ]
    },
    {
     "data": {
      "text/plain": [
       "0"
      ]
     },
     "execution_count": 10,
     "metadata": {},
     "output_type": "execute_result"
    }
   ],
   "source": [
    "import os\n",
    "import subprocess\n",
    "\n",
    "# Check the current working directory\n",
    "print(\"Current working directory:\", os.getcwd())\n",
    "\n",
    "# Check if the file exists\n",
    "file_path = '../data/raw/video_to_text/01.mp4'\n",
    "print(f\"Does the file exist? {os.path.exists(file_path)}\")\n",
    "\n",
    "# Run the ffmpeg command\n",
    "command = f'ffmpeg -i {file_path} -ab 160k -ar 44100 -vn audio.wav'\n",
    "subprocess.call(command, shell=True)\n"
   ]
  },
  {
   "cell_type": "code",
   "execution_count": 14,
   "metadata": {},
   "outputs": [
    {
     "name": "stderr",
     "output_type": "stream",
     "text": [
      "ffmpeg version 7.1 Copyright (c) 2000-2024 the FFmpeg developers\n",
      "  built with Apple clang version 16.0.0 (clang-1600.0.26.4)\n",
      "  configuration: --prefix=/usr/local/Cellar/ffmpeg/7.1_4 --enable-shared --enable-pthreads --enable-version3 --cc=clang --host-cflags= --host-ldflags='-Wl,-ld_classic' --enable-ffplay --enable-gnutls --enable-gpl --enable-libaom --enable-libaribb24 --enable-libbluray --enable-libdav1d --enable-libharfbuzz --enable-libjxl --enable-libmp3lame --enable-libopus --enable-librav1e --enable-librist --enable-librubberband --enable-libsnappy --enable-libsrt --enable-libssh --enable-libsvtav1 --enable-libtesseract --enable-libtheora --enable-libvidstab --enable-libvmaf --enable-libvorbis --enable-libvpx --enable-libwebp --enable-libx264 --enable-libx265 --enable-libxml2 --enable-libxvid --enable-lzma --enable-libfontconfig --enable-libfreetype --enable-frei0r --enable-libass --enable-libopencore-amrnb --enable-libopencore-amrwb --enable-libopenjpeg --enable-libspeex --enable-libsoxr --enable-libzmq --enable-libzimg --disable-libjack --disable-indev=jack --enable-videotoolbox --enable-audiotoolbox\n",
      "  libavutil      59. 39.100 / 59. 39.100\n",
      "  libavcodec     61. 19.100 / 61. 19.100\n",
      "  libavformat    61.  7.100 / 61.  7.100\n",
      "  libavdevice    61.  3.100 / 61.  3.100\n",
      "  libavfilter    10.  4.100 / 10.  4.100\n",
      "  libswscale      8.  3.100 /  8.  3.100\n",
      "  libswresample   5.  3.100 /  5.  3.100\n",
      "  libpostproc    58.  3.100 / 58.  3.100\n",
      "Input #0, mov,mp4,m4a,3gp,3g2,mj2, from '../data/raw/video_to_text/01.mp4':\n",
      "  Metadata:\n",
      "    major_brand     : mp42\n",
      "    minor_version   : 0\n",
      "    compatible_brands: isommp42\n",
      "    encoder         : Google\n",
      "  Duration: 00:00:19.56, start: 0.000000, bitrate: 907 kb/s\n",
      "  Stream #0:0[0x1](und): Video: h264 (Constrained Baseline) (avc1 / 0x31637661), yuv420p(tv, bt709, progressive), 640x640 [SAR 1:1 DAR 1:1], 715 kb/s, 30 fps, 30 tbr, 15360 tbn (default)\n",
      "      Metadata:\n",
      "        handler_name    : ISO Media file produced by Google Inc.\n",
      "        vendor_id       : [0][0][0][0]\n",
      "  Stream #0:1[0x2](und): Audio: aac (LC) (mp4a / 0x6134706D), 48000 Hz, stereo, fltp, 192 kb/s (default)\n",
      "      Metadata:\n",
      "        handler_name    : ISO Media file produced by Google Inc.\n",
      "        vendor_id       : [0][0][0][0]\n",
      "Stream mapping:\n",
      "  Stream #0:1 -> #0:0 (aac (native) -> pcm_s16le (native))\n",
      "Press [q] to stop, [?] for help\n",
      "Output #0, wav, to '../data/processed/video_to_text/01.wav':\n",
      "  Metadata:\n",
      "    major_brand     : mp42\n",
      "    minor_version   : 0\n",
      "    compatible_brands: isommp42\n",
      "    ISFT            : Lavf61.7.100\n",
      "  Stream #0:0(und): Audio: pcm_s16le ([1][0][0][0] / 0x0001), 44100 Hz, stereo, s16, 1411 kb/s (default)\n",
      "      Metadata:\n",
      "        handler_name    : ISO Media file produced by Google Inc.\n",
      "        vendor_id       : [0][0][0][0]\n",
      "        encoder         : Lavc61.19.100 pcm_s16le\n",
      "[out#0/wav @ 0x7f89f11344c0] video:0KiB audio:3370KiB subtitle:0KiB other streams:0KiB global headers:0KiB muxing overhead: 0.002260%\n",
      "size=    3370KiB time=00:00:19.56 bitrate=1411.2kbits/s speed= 626x    \n"
     ]
    },
    {
     "data": {
      "text/plain": [
       "0"
      ]
     },
     "execution_count": 14,
     "metadata": {},
     "output_type": "execute_result"
    }
   ],
   "source": [
    "import os\n",
    "import subprocess\n",
    "\n",
    "# Define the directory and file paths\n",
    "input_video_path = '../data/raw/video_to_text/01.mp4'\n",
    "output_audio_path = '../data/processed/video_to_text/01.wav'\n",
    "\n",
    "# Ensure the output directory exists\n",
    "output_dir = os.path.dirname(output_audio_path)\n",
    "if not os.path.exists(output_dir):\n",
    "    os.makedirs(output_dir)\n",
    "\n",
    "# Define the ffmpeg command\n",
    "command = f'ffmpeg -i {input_video_path} -ab 160k -ar 44100 -vn {output_audio_path}'\n",
    "\n",
    "# Run the command using subprocess\n",
    "subprocess.call(command, shell=True)\n"
   ]
  },
  {
   "cell_type": "code",
   "execution_count": null,
   "metadata": {},
   "outputs": [],
   "source": [
    "https://www.programiz.com/online-compiler/8gfioAU5MuCty\n",
    "\n",
    "https://www.programiz.com/online-compiler/5XKf8Z8ClQax0"
   ]
  },
  {
   "cell_type": "code",
   "execution_count": 17,
   "metadata": {},
   "outputs": [
    {
     "name": "stdout",
     "output_type": "stream",
     "text": [
      "zsh:1: no matches found: https://youtu.be/dWj8VeBEQCc?si=Q9HIvdUCaoJcOCk4\n"
     ]
    }
   ],
   "source": [
    "!wget https://youtu.be/dWj8VeBEQCc?si=Q9HIvdUCaoJcOCk4"
   ]
  },
  {
   "cell_type": "code",
   "execution_count": null,
   "metadata": {},
   "outputs": [],
   "source": []
  }
 ],
 "metadata": {
  "kernelspec": {
   "display_name": "transcript_project",
   "language": "python",
   "name": "python3"
  },
  "language_info": {
   "codemirror_mode": {
    "name": "ipython",
    "version": 3
   },
   "file_extension": ".py",
   "mimetype": "text/x-python",
   "name": "python",
   "nbconvert_exporter": "python",
   "pygments_lexer": "ipython3",
   "version": "3.12.7"
  }
 },
 "nbformat": 4,
 "nbformat_minor": 2
}
